<svg width="922" height="87" viewBox="0 0 922 87" fill="none" xmlns="http://www.w3.org/2000/svg">
<rect x="0.5" y="0.5" width="791" height="86" stroke="white"/>
<rect width="136" height="56" transform="translate(635 16)" fill="white"/>
<path d="M667.432 37.1818C667.261 35.7424 666.57 34.625 665.358 33.8295C664.146 33.0341 662.659 32.6364 660.898 32.6364C659.61 32.6364 658.483 32.8447 657.517 33.2614C656.561 33.678 655.813 34.2509 655.273 34.9801C654.742 35.7093 654.477 36.5379 654.477 37.4659C654.477 38.2424 654.662 38.91 655.031 39.4688C655.41 40.018 655.893 40.4773 656.48 40.8466C657.067 41.2064 657.683 41.5047 658.327 41.7415C658.971 41.9687 659.562 42.1534 660.102 42.2955L663.057 43.0909C663.814 43.2898 664.657 43.5644 665.585 43.9148C666.523 44.2652 667.418 44.7434 668.27 45.3494C669.132 45.946 669.842 46.7131 670.401 47.6506C670.959 48.5881 671.239 49.7386 671.239 51.1023C671.239 52.6742 670.827 54.0947 670.003 55.3636C669.188 56.6326 667.995 57.6411 666.423 58.3892C664.861 59.1373 662.962 59.5114 660.727 59.5114C658.644 59.5114 656.84 59.1752 655.315 58.5028C653.8 57.8305 652.607 56.893 651.736 55.6903C650.874 54.4877 650.386 53.0909 650.273 51.5H653.909C654.004 52.5985 654.373 53.5076 655.017 54.2273C655.67 54.9375 656.494 55.4678 657.489 55.8182C658.492 56.1591 659.572 56.3295 660.727 56.3295C662.072 56.3295 663.279 56.1117 664.349 55.6761C665.42 55.2311 666.267 54.6155 666.892 53.8295C667.517 53.0341 667.83 52.1061 667.83 51.0455C667.83 50.0795 667.56 49.2936 667.02 48.6875C666.48 48.0814 665.77 47.589 664.889 47.2102C664.009 46.8314 663.057 46.5 662.034 46.2159L658.455 45.1932C656.182 44.5398 654.383 43.607 653.057 42.3949C651.731 41.1828 651.068 39.5966 651.068 37.6364C651.068 36.0076 651.509 34.5871 652.389 33.375C653.279 32.1534 654.473 31.2064 655.969 30.5341C657.474 29.8523 659.155 29.5114 661.011 29.5114C662.886 29.5114 664.553 29.8475 666.011 30.5199C667.47 31.1828 668.625 32.0919 669.477 33.2472C670.339 34.4025 670.794 35.714 670.841 37.1818H667.432ZM677.031 59V29.9091H694.587V33.0341H680.553V42.8636H693.678V45.9886H680.553V55.875H694.815V59H677.031ZM724.005 29.9091V59H720.596L704.744 36.1591H704.46V59H700.937V29.9091H704.346L720.255 52.8068H720.539V29.9091H724.005ZM740.031 59H731.054V29.9091H740.429C743.251 29.9091 745.666 30.4915 747.673 31.6562C749.681 32.8116 751.22 34.4735 752.29 36.642C753.36 38.8011 753.895 41.3864 753.895 44.3977C753.895 47.428 753.355 50.0369 752.276 52.2244C751.196 54.4025 749.624 56.0786 747.56 57.2528C745.495 58.4176 742.986 59 740.031 59ZM734.577 55.875H739.804C742.209 55.875 744.203 55.411 745.784 54.483C747.366 53.5549 748.545 52.2339 749.321 50.5199C750.098 48.8059 750.486 46.7652 750.486 44.3977C750.486 42.0492 750.102 40.0275 749.335 38.3324C748.568 36.6278 747.422 35.321 745.898 34.4119C744.373 33.4934 742.474 33.0341 740.202 33.0341H734.577V55.875Z" fill="black"/>
<path d="M55.4318 36.1818C55.2614 34.7424 54.5701 33.625 53.358 32.8295C52.1458 32.0341 50.6591 31.6364 48.8977 31.6364C47.6098 31.6364 46.483 31.8447 45.517 32.2614C44.5606 32.678 43.8125 33.2509 43.2727 33.9801C42.7424 34.7093 42.4773 35.5379 42.4773 36.4659C42.4773 37.2424 42.6619 37.91 43.0312 38.4688C43.41 39.018 43.893 39.4773 44.4801 39.8466C45.0672 40.2064 45.6828 40.5047 46.3267 40.7415C46.9706 40.9687 47.5625 41.1534 48.1023 41.2955L51.0568 42.0909C51.8144 42.2898 52.6572 42.5644 53.5852 42.9148C54.5227 43.2652 55.4176 43.7434 56.2699 44.3494C57.1316 44.946 57.8419 45.7131 58.4006 46.6506C58.9593 47.5881 59.2386 48.7386 59.2386 50.1023C59.2386 51.6742 58.8267 53.0947 58.0028 54.3636C57.1884 55.6326 55.9953 56.6411 54.4233 57.3892C52.8608 58.1373 50.9621 58.5114 48.7273 58.5114C46.6439 58.5114 44.84 58.1752 43.3153 57.5028C41.8002 56.8305 40.607 55.893 39.7358 54.6903C38.8741 53.4877 38.3864 52.0909 38.2727 50.5H41.9091C42.0038 51.5985 42.3731 52.5076 43.017 53.2273C43.6705 53.9375 44.4943 54.4678 45.4886 54.8182C46.4924 55.1591 47.572 55.3295 48.7273 55.3295C50.072 55.3295 51.2794 55.1117 52.3494 54.6761C53.4195 54.2311 54.267 53.6155 54.892 52.8295C55.517 52.0341 55.8295 51.1061 55.8295 50.0455C55.8295 49.0795 55.5597 48.2936 55.0199 47.6875C54.4801 47.0814 53.7699 46.589 52.8892 46.2102C52.0085 45.8314 51.0568 45.5 50.0341 45.2159L46.4545 44.1932C44.1818 43.5398 42.3826 42.607 41.0568 41.3949C39.7311 40.1828 39.0682 38.5966 39.0682 36.6364C39.0682 35.0076 39.5085 33.5871 40.3892 32.375C41.2794 31.1534 42.4725 30.2064 43.9688 29.5341C45.4744 28.8523 47.1553 28.5114 49.0114 28.5114C50.8864 28.5114 52.553 28.8475 54.0114 29.5199C55.4697 30.1828 56.625 31.0919 57.4773 32.2472C58.339 33.4025 58.7936 34.714 58.8409 36.1818H55.4318ZM70.9964 58.5114C69.6139 58.5114 68.3591 58.2509 67.2322 57.7301C66.1054 57.1998 65.2105 56.4375 64.5476 55.4432C63.8847 54.4394 63.5533 53.2273 63.5533 51.8068C63.5533 50.5568 63.7995 49.5436 64.2919 48.767C64.7843 47.9811 65.4425 47.3655 66.2663 46.9205C67.0902 46.4754 67.9993 46.1439 68.9936 45.9261C69.9974 45.6989 71.0059 45.5189 72.0192 45.3864C73.3449 45.2159 74.4197 45.0881 75.2436 45.0028C76.0769 44.9081 76.683 44.7519 77.0618 44.5341C77.45 44.3163 77.6442 43.9375 77.6442 43.3977V43.2841C77.6442 41.8826 77.2607 40.7936 76.4936 40.017C75.736 39.2405 74.5855 38.8523 73.0419 38.8523C71.4415 38.8523 70.1868 39.2027 69.2777 39.9034C68.3686 40.6042 67.7294 41.3523 67.3601 42.1477L64.1783 41.0114C64.7464 39.6856 65.504 38.6534 66.451 37.9148C67.4074 37.1667 68.4491 36.6458 69.576 36.3523C70.7124 36.0492 71.8298 35.8977 72.9283 35.8977C73.629 35.8977 74.4339 35.983 75.343 36.1534C76.2616 36.3144 77.147 36.6506 77.9993 37.1619C78.861 37.6733 79.576 38.4451 80.1442 39.4773C80.7124 40.5095 80.9964 41.892 80.9964 43.625V58H77.6442V55.0455H77.4737C77.2464 55.5189 76.8677 56.0256 76.3374 56.5653C75.8071 57.1051 75.1016 57.5644 74.2209 57.9432C73.3402 58.322 72.2654 58.5114 70.9964 58.5114ZM71.5078 55.5C72.8336 55.5 73.951 55.2396 74.8601 54.7188C75.7786 54.1979 76.4699 53.5256 76.9339 52.7017C77.4074 51.8778 77.6442 51.0114 77.6442 50.1023V47.0341C77.5021 47.2045 77.1896 47.3608 76.7067 47.5028C76.2332 47.6354 75.6839 47.7538 75.0589 47.858C74.4434 47.9527 73.8421 48.0379 73.255 48.1136C72.6773 48.1799 72.2086 48.2367 71.8487 48.2841C70.9775 48.3977 70.1631 48.5824 69.4055 48.8381C68.6574 49.0843 68.0514 49.4583 67.5874 49.9602C67.1328 50.4527 66.9055 51.125 66.9055 51.9773C66.9055 53.142 67.3364 54.0227 68.1982 54.6193C69.0694 55.2064 70.1726 55.5 71.5078 55.5ZM88.4929 66.1818C87.9247 66.1818 87.4181 66.1345 86.973 66.0398C86.5279 65.9545 86.2202 65.8693 86.0497 65.7841L86.902 62.8295C87.7164 63.0379 88.4361 63.1136 89.0611 63.0568C89.6861 63 90.2401 62.7206 90.723 62.2188C91.2154 61.7263 91.6652 60.9261 92.0724 59.8182L92.6974 58.1136L84.6293 36.1818H88.2656L94.2884 53.5682H94.5156L100.538 36.1818H104.175L94.9134 61.1818C94.4967 62.3087 93.9806 63.2415 93.3651 63.9801C92.7495 64.7282 92.0346 65.2822 91.2202 65.642C90.4152 66.0019 89.5062 66.1818 88.4929 66.1818ZM124.793 58L118.145 36.1818H121.668L126.384 52.8864H126.611L131.27 36.1818H134.849L139.452 52.8295H139.679L144.395 36.1818H147.918L141.27 58H137.974L133.202 41.2386H132.861L128.088 58H124.793ZM155.702 44.875V58H152.349V28.9091H155.702V39.5909H155.986C156.497 38.464 157.264 37.5691 158.287 36.9062C159.319 36.2339 160.692 35.8977 162.406 35.8977C163.893 35.8977 165.195 36.196 166.312 36.7926C167.43 37.3797 168.296 38.2841 168.912 39.5057C169.537 40.7178 169.849 42.2614 169.849 44.1364V58H166.497V44.3636C166.497 42.6307 166.047 41.2907 165.148 40.3438C164.258 39.3873 163.022 38.9091 161.44 38.9091C160.342 38.9091 159.357 39.1411 158.486 39.6051C157.624 40.0691 156.942 40.7462 156.44 41.6364C155.948 42.5265 155.702 43.6061 155.702 44.875ZM182.403 58.5114C181.02 58.5114 179.765 58.2509 178.638 57.7301C177.512 57.1998 176.617 56.4375 175.954 55.4432C175.291 54.4394 174.96 53.2273 174.96 51.8068C174.96 50.5568 175.206 49.5436 175.698 48.767C176.191 47.9811 176.849 47.3655 177.673 46.9205C178.496 46.4754 179.406 46.1439 180.4 45.9261C181.404 45.6989 182.412 45.5189 183.425 45.3864C184.751 45.2159 185.826 45.0881 186.65 45.0028C187.483 44.9081 188.089 44.7519 188.468 44.5341C188.856 44.3163 189.05 43.9375 189.05 43.3977V43.2841C189.05 41.8826 188.667 40.7936 187.9 40.017C187.142 39.2405 185.992 38.8523 184.448 38.8523C182.848 38.8523 181.593 39.2027 180.684 39.9034C179.775 40.6042 179.136 41.3523 178.766 42.1477L175.585 41.0114C176.153 39.6856 176.91 38.6534 177.857 37.9148C178.814 37.1667 179.855 36.6458 180.982 36.3523C182.119 36.0492 183.236 35.8977 184.335 35.8977C185.035 35.8977 185.84 35.983 186.749 36.1534C187.668 36.3144 188.553 36.6506 189.406 37.1619C190.267 37.6733 190.982 38.4451 191.55 39.4773C192.119 40.5095 192.403 41.892 192.403 43.625V58H189.05V55.0455H188.88C188.653 55.5189 188.274 56.0256 187.744 56.5653C187.213 57.1051 186.508 57.5644 185.627 57.9432C184.746 58.322 183.672 58.5114 182.403 58.5114ZM182.914 55.5C184.24 55.5 185.357 55.2396 186.266 54.7188C187.185 54.1979 187.876 53.5256 188.34 52.7017C188.814 51.8778 189.05 51.0114 189.05 50.1023V47.0341C188.908 47.2045 188.596 47.3608 188.113 47.5028C187.639 47.6354 187.09 47.7538 186.465 47.858C185.85 47.9527 185.248 48.0379 184.661 48.1136C184.084 48.1799 183.615 48.2367 183.255 48.2841C182.384 48.3977 181.569 48.5824 180.812 48.8381C180.064 49.0843 179.458 49.4583 178.994 49.9602C178.539 50.4527 178.312 51.125 178.312 51.9773C178.312 53.142 178.743 54.0227 179.604 54.6193C180.476 55.2064 181.579 55.5 182.914 55.5ZM208.01 36.1818V39.0227H196.703V36.1818H208.01ZM199.999 30.9545H203.351V51.75C203.351 52.697 203.488 53.4072 203.763 53.8807C204.047 54.3447 204.407 54.6572 204.842 54.8182C205.287 54.9697 205.756 55.0455 206.249 55.0455C206.618 55.0455 206.921 55.0265 207.158 54.9886C207.394 54.9413 207.584 54.9034 207.726 54.875L208.408 57.8864C208.18 57.9716 207.863 58.0568 207.456 58.142C207.049 58.2367 206.533 58.2841 205.908 58.2841C204.961 58.2841 204.033 58.0805 203.124 57.6733C202.224 57.2661 201.476 56.6458 200.879 55.8125C200.292 54.9792 199.999 53.928 199.999 52.6591V30.9545ZM221.966 58.4545C219.864 58.4545 218.05 57.9905 216.526 57.0625C215.01 56.125 213.841 54.8182 213.017 53.142C212.203 51.4564 211.795 49.4962 211.795 47.2614C211.795 45.0265 212.203 43.0568 213.017 41.3523C213.841 39.6383 214.987 38.303 216.455 37.3466C217.932 36.3807 219.655 35.8977 221.625 35.8977C222.761 35.8977 223.884 36.0871 224.991 36.4659C226.099 36.8447 227.108 37.4602 228.017 38.3125C228.926 39.1553 229.651 40.2727 230.19 41.6648C230.73 43.0568 231 44.7708 231 46.8068V48.2273H214.182V45.3295H227.591C227.591 44.0985 227.345 43 226.852 42.0341C226.369 41.0682 225.678 40.3059 224.778 39.7472C223.888 39.1884 222.837 38.9091 221.625 38.9091C220.29 38.9091 219.134 39.2405 218.159 39.9034C217.193 40.5568 216.45 41.4091 215.929 42.4602C215.408 43.5114 215.148 44.6383 215.148 45.8409V47.7727C215.148 49.4205 215.432 50.8172 216 51.9631C216.578 53.0994 217.378 53.9659 218.401 54.5625C219.423 55.1496 220.612 55.4432 221.966 55.4432C222.847 55.4432 223.642 55.3201 224.352 55.0739C225.072 54.8182 225.692 54.4394 226.213 53.9375C226.734 53.4261 227.136 52.7917 227.42 52.0341L230.659 52.9432C230.318 54.0417 229.745 55.0076 228.94 55.8409C228.135 56.6648 227.141 57.3087 225.957 57.7727C224.774 58.2273 223.443 58.4545 221.966 58.4545ZM253.276 36.1818L245.208 58H241.799L233.731 36.1818H237.367L243.39 53.5682H243.617L249.64 36.1818H253.276ZM266.067 58.4545C263.965 58.4545 262.152 57.9905 260.627 57.0625C259.112 56.125 257.942 54.8182 257.119 53.142C256.304 51.4564 255.897 49.4962 255.897 47.2614C255.897 45.0265 256.304 43.0568 257.119 41.3523C257.942 39.6383 259.088 38.303 260.556 37.3466C262.033 36.3807 263.757 35.8977 265.727 35.8977C266.863 35.8977 267.985 36.0871 269.093 36.4659C270.201 36.8447 271.21 37.4602 272.119 38.3125C273.028 39.1553 273.752 40.2727 274.292 41.6648C274.832 43.0568 275.102 44.7708 275.102 46.8068V48.2273H258.283V45.3295H271.692C271.692 44.0985 271.446 43 270.954 42.0341C270.471 41.0682 269.78 40.3059 268.88 39.7472C267.99 39.1884 266.939 38.9091 265.727 38.9091C264.391 38.9091 263.236 39.2405 262.261 39.9034C261.295 40.5568 260.551 41.4091 260.031 42.4602C259.51 43.5114 259.249 44.6383 259.249 45.8409V47.7727C259.249 49.4205 259.533 50.8172 260.102 51.9631C260.679 53.0994 261.479 53.9659 262.502 54.5625C263.525 55.1496 264.713 55.4432 266.067 55.4432C266.948 55.4432 267.744 55.3201 268.454 55.0739C269.174 54.8182 269.794 54.4394 270.315 53.9375C270.835 53.4261 271.238 52.7917 271.522 52.0341L274.761 52.9432C274.42 54.0417 273.847 55.0076 273.042 55.8409C272.237 56.6648 271.243 57.3087 270.059 57.7727C268.875 58.2273 267.545 58.4545 266.067 58.4545ZM280.201 58V36.1818H283.44V39.4773H283.667C284.065 38.3977 284.784 37.5218 285.826 36.8494C286.868 36.1771 288.042 35.8409 289.349 35.8409C289.595 35.8409 289.903 35.8456 290.272 35.8551C290.641 35.8646 290.921 35.8788 291.11 35.8977V39.3068C290.996 39.2784 290.736 39.2358 290.329 39.179C289.931 39.1127 289.51 39.0795 289.065 39.0795C288.004 39.0795 287.057 39.3021 286.224 39.7472C285.4 40.1828 284.746 40.7888 284.263 41.5653C283.79 42.3324 283.553 43.2083 283.553 44.1932V58H280.201ZM308.493 66.1818C307.925 66.1818 307.418 66.1345 306.973 66.0398C306.528 65.9545 306.22 65.8693 306.05 65.7841L306.902 62.8295C307.716 63.0379 308.436 63.1136 309.061 63.0568C309.686 63 310.24 62.7206 310.723 62.2188C311.215 61.7263 311.665 60.9261 312.072 59.8182L312.697 58.1136L304.629 36.1818H308.266L314.288 53.5682H314.516L320.538 36.1818H324.175L314.913 61.1818C314.497 62.3087 313.981 63.2415 313.365 63.9801C312.75 64.7282 312.035 65.2822 311.22 65.642C310.415 66.0019 309.506 66.1818 308.493 66.1818ZM336.682 58.4545C334.712 58.4545 332.984 57.9858 331.497 57.0483C330.02 56.1108 328.865 54.7992 328.031 53.1136C327.207 51.428 326.795 49.4583 326.795 47.2045C326.795 44.9318 327.207 42.9479 328.031 41.2528C328.865 39.5578 330.02 38.2415 331.497 37.304C332.984 36.3665 334.712 35.8977 336.682 35.8977C338.652 35.8977 340.375 36.3665 341.852 37.304C343.339 38.2415 344.494 39.5578 345.318 41.2528C346.152 42.9479 346.568 44.9318 346.568 47.2045C346.568 49.4583 346.152 51.428 345.318 53.1136C344.494 54.7992 343.339 56.1108 341.852 57.0483C340.375 57.9858 338.652 58.4545 336.682 58.4545ZM336.682 55.4432C338.178 55.4432 339.409 55.0597 340.375 54.2926C341.341 53.5256 342.056 52.517 342.52 51.267C342.984 50.017 343.216 48.6629 343.216 47.2045C343.216 45.7462 342.984 44.3873 342.52 43.1278C342.056 41.8684 341.341 40.8504 340.375 40.0739C339.409 39.2973 338.178 38.9091 336.682 38.9091C335.186 38.9091 333.955 39.2973 332.989 40.0739C332.023 40.8504 331.308 41.8684 330.844 43.1278C330.38 44.3873 330.148 45.7462 330.148 47.2045C330.148 48.6629 330.38 50.017 330.844 51.267C331.308 52.517 332.023 53.5256 332.989 54.2926C333.955 55.0597 335.186 55.4432 336.682 55.4432ZM365.435 49.0795V36.1818H368.788V58H365.435V54.3068H365.208C364.697 55.4148 363.901 56.357 362.822 57.1335C361.742 57.9006 360.379 58.2841 358.731 58.2841C357.367 58.2841 356.155 57.9858 355.094 57.3892C354.034 56.7831 353.201 55.8741 352.594 54.6619C351.988 53.4403 351.685 51.9015 351.685 50.0455V36.1818H355.038V49.8182C355.038 51.4091 355.483 52.678 356.373 53.625C357.272 54.572 358.418 55.0455 359.81 55.0455C360.644 55.0455 361.491 54.8324 362.353 54.4062C363.224 53.9801 363.953 53.3267 364.54 52.446C365.137 51.5653 365.435 50.4432 365.435 49.0795ZM378.468 28.9091V31.4659C378.468 32.2424 378.326 33.071 378.042 33.9517C377.767 34.8229 377.36 35.6705 376.82 36.4943C376.29 37.3087 375.646 38.0189 374.888 38.625L373.07 37.1477C373.667 36.2955 374.183 35.41 374.619 34.4915C375.064 33.5634 375.286 32.5739 375.286 31.5227V28.9091H378.468ZM382.037 58V36.1818H385.276V39.4773H385.503C385.901 38.3977 386.62 37.5218 387.662 36.8494C388.704 36.1771 389.878 35.8409 391.185 35.8409C391.431 35.8409 391.739 35.8456 392.108 35.8551C392.477 35.8646 392.757 35.8788 392.946 35.8977V39.3068C392.832 39.2784 392.572 39.2358 392.165 39.179C391.767 39.1127 391.346 39.0795 390.901 39.0795C389.84 39.0795 388.893 39.3021 388.06 39.7472C387.236 40.1828 386.582 40.7888 386.099 41.5653C385.626 42.3324 385.389 43.2083 385.389 44.1932V58H382.037ZM405.403 58.4545C403.301 58.4545 401.488 57.9905 399.963 57.0625C398.448 56.125 397.278 54.8182 396.455 53.142C395.64 51.4564 395.233 49.4962 395.233 47.2614C395.233 45.0265 395.64 43.0568 396.455 41.3523C397.278 39.6383 398.424 38.303 399.892 37.3466C401.369 36.3807 403.093 35.8977 405.062 35.8977C406.199 35.8977 407.321 36.0871 408.429 36.4659C409.537 36.8447 410.545 37.4602 411.455 38.3125C412.364 39.1553 413.088 40.2727 413.628 41.6648C414.168 43.0568 414.438 44.7708 414.438 46.8068V48.2273H397.619V45.3295H411.028C411.028 44.0985 410.782 43 410.29 42.0341C409.807 41.0682 409.116 40.3059 408.216 39.7472C407.326 39.1884 406.275 38.9091 405.062 38.9091C403.727 38.9091 402.572 39.2405 401.597 39.9034C400.631 40.5568 399.887 41.4091 399.366 42.4602C398.846 43.5114 398.585 44.6383 398.585 45.8409V47.7727C398.585 49.4205 398.869 50.8172 399.438 51.9631C400.015 53.0994 400.815 53.9659 401.838 54.5625C402.861 55.1496 404.049 55.4432 405.403 55.4432C406.284 55.4432 407.08 55.3201 407.79 55.0739C408.509 54.8182 409.13 54.4394 409.651 53.9375C410.171 53.4261 410.574 52.7917 410.858 52.0341L414.097 52.9432C413.756 54.0417 413.183 55.0076 412.378 55.8409C411.573 56.6648 410.579 57.3087 409.395 57.7727C408.211 58.2273 406.881 58.4545 405.403 58.4545ZM440.503 36.1818V39.0227H428.741V36.1818H440.503ZM432.264 58V33.1705C432.264 31.9205 432.558 30.8788 433.145 30.0455C433.732 29.2121 434.494 28.5871 435.432 28.1705C436.369 27.7538 437.359 27.5455 438.401 27.5455C439.224 27.5455 439.897 27.6117 440.418 27.7443C440.938 27.8769 441.327 28 441.582 28.1136L440.616 31.0114C440.446 30.9545 440.209 30.8835 439.906 30.7983C439.613 30.7131 439.224 30.6705 438.741 30.6705C437.634 30.6705 436.833 30.9498 436.341 31.5085C435.858 32.0672 435.616 32.8864 435.616 33.9659V58H432.264ZM453.45 58.4545C451.348 58.4545 449.535 57.9905 448.01 57.0625C446.495 56.125 445.325 54.8182 444.501 53.142C443.687 51.4564 443.28 49.4962 443.28 47.2614C443.28 45.0265 443.687 43.0568 444.501 41.3523C445.325 39.6383 446.471 38.303 447.939 37.3466C449.416 36.3807 451.14 35.8977 453.109 35.8977C454.246 35.8977 455.368 36.0871 456.476 36.4659C457.584 36.8447 458.592 37.4602 459.501 38.3125C460.411 39.1553 461.135 40.2727 461.675 41.6648C462.214 43.0568 462.484 44.7708 462.484 46.8068V48.2273H445.666V45.3295H459.075C459.075 44.0985 458.829 43 458.337 42.0341C457.854 41.0682 457.162 40.3059 456.263 39.7472C455.373 39.1884 454.321 38.9091 453.109 38.9091C451.774 38.9091 450.619 39.2405 449.643 39.9034C448.678 40.5568 447.934 41.4091 447.413 42.4602C446.893 43.5114 446.632 44.6383 446.632 45.8409V47.7727C446.632 49.4205 446.916 50.8172 447.484 51.9631C448.062 53.0994 448.862 53.9659 449.885 54.5625C450.908 55.1496 452.096 55.4432 453.45 55.4432C454.331 55.4432 455.126 55.3201 455.837 55.0739C456.556 54.8182 457.177 54.4394 457.697 53.9375C458.218 53.4261 458.621 52.7917 458.905 52.0341L462.143 52.9432C461.803 54.0417 461.23 55.0076 460.425 55.8409C459.62 56.6648 458.625 57.3087 457.442 57.7727C456.258 58.2273 454.928 58.4545 453.45 58.4545ZM476.732 58.4545C474.629 58.4545 472.816 57.9905 471.291 57.0625C469.776 56.125 468.607 54.8182 467.783 53.142C466.968 51.4564 466.561 49.4962 466.561 47.2614C466.561 45.0265 466.968 43.0568 467.783 41.3523C468.607 39.6383 469.752 38.303 471.22 37.3466C472.697 36.3807 474.421 35.8977 476.391 35.8977C477.527 35.8977 478.649 36.0871 479.757 36.4659C480.865 36.8447 481.874 37.4602 482.783 38.3125C483.692 39.1553 484.416 40.2727 484.956 41.6648C485.496 43.0568 485.766 44.7708 485.766 46.8068V48.2273H468.947V45.3295H482.357C482.357 44.0985 482.11 43 481.618 42.0341C481.135 41.0682 480.444 40.3059 479.544 39.7472C478.654 39.1884 477.603 38.9091 476.391 38.9091C475.055 38.9091 473.9 39.2405 472.925 39.9034C471.959 40.5568 471.215 41.4091 470.695 42.4602C470.174 43.5114 469.913 44.6383 469.913 45.8409V47.7727C469.913 49.4205 470.197 50.8172 470.766 51.9631C471.343 53.0994 472.143 53.9659 473.166 54.5625C474.189 55.1496 475.377 55.4432 476.732 55.4432C477.612 55.4432 478.408 55.3201 479.118 55.0739C479.838 54.8182 480.458 54.4394 480.979 53.9375C481.5 53.4261 481.902 52.7917 482.186 52.0341L485.425 52.9432C485.084 54.0417 484.511 55.0076 483.706 55.8409C482.901 56.6648 481.907 57.3087 480.723 57.7727C479.539 58.2273 478.209 58.4545 476.732 58.4545ZM494.217 28.9091V58H490.865V28.9091H494.217ZM500.357 58V36.1818H503.71V58H500.357ZM502.062 32.5455C501.408 32.5455 500.845 32.3229 500.371 31.8778C499.907 31.4328 499.675 30.8977 499.675 30.2727C499.675 29.6477 499.907 29.1127 500.371 28.6676C500.845 28.2225 501.408 28 502.062 28C502.715 28 503.274 28.2225 503.738 28.6676C504.211 29.1127 504.448 29.6477 504.448 30.2727C504.448 30.8977 504.211 31.4328 503.738 31.8778C503.274 32.3229 502.715 32.5455 502.062 32.5455ZM513.202 44.875V58H509.849V36.1818H513.088V39.5909H513.372C513.884 38.483 514.66 37.5928 515.702 36.9205C516.743 36.2386 518.088 35.8977 519.736 35.8977C521.213 35.8977 522.506 36.2008 523.614 36.8068C524.722 37.4034 525.583 38.3125 526.199 39.5341C526.814 40.7462 527.122 42.2803 527.122 44.1364V58H523.77V44.3636C523.77 42.6496 523.325 41.3144 522.435 40.358C521.545 39.392 520.323 38.9091 518.77 38.9091C517.7 38.9091 516.743 39.1411 515.901 39.6051C515.067 40.0691 514.409 40.7462 513.926 41.6364C513.443 42.5265 513.202 43.6061 513.202 44.875ZM542.055 66.6364C540.435 66.6364 539.043 66.428 537.879 66.0114C536.714 65.6042 535.743 65.0644 534.967 64.392C534.2 63.7292 533.589 63.0189 533.134 62.2614L535.805 60.3864C536.108 60.7841 536.491 61.2386 536.955 61.75C537.419 62.2708 538.054 62.7206 538.859 63.0994C539.673 63.4877 540.738 63.6818 542.055 63.6818C543.816 63.6818 545.27 63.2557 546.415 62.4034C547.561 61.5511 548.134 60.2159 548.134 58.3977V53.9659H547.85C547.604 54.3636 547.254 54.8561 546.799 55.4432C546.354 56.0208 545.71 56.5369 544.867 56.9915C544.034 57.4366 542.907 57.6591 541.487 57.6591C539.725 57.6591 538.144 57.2424 536.742 56.4091C535.35 55.5758 534.247 54.3636 533.433 52.7727C532.628 51.1818 532.225 49.25 532.225 46.9773C532.225 44.7424 532.618 42.7964 533.404 41.1392C534.19 39.4725 535.284 38.1847 536.685 37.2756C538.087 36.357 539.706 35.8977 541.543 35.8977C542.964 35.8977 544.091 36.1345 544.924 36.608C545.767 37.072 546.411 37.6023 546.856 38.1989C547.31 38.786 547.661 39.2689 547.907 39.6477H548.248V36.1818H551.487V58.625C551.487 60.5 551.06 62.0246 550.208 63.1989C549.365 64.3826 548.229 65.2491 546.799 65.7983C545.379 66.357 543.797 66.6364 542.055 66.6364ZM541.941 54.6477C543.286 54.6477 544.422 54.34 545.35 53.7244C546.278 53.1089 546.984 52.2235 547.467 51.0682C547.95 49.9129 548.191 48.5303 548.191 46.9205C548.191 45.3485 547.954 43.9612 547.481 42.7585C547.007 41.5559 546.307 40.6136 545.379 39.9318C544.451 39.25 543.305 38.9091 541.941 38.9091C540.521 38.9091 539.337 39.2689 538.39 39.9886C537.452 40.7083 536.747 41.6742 536.273 42.8864C535.809 44.0985 535.577 45.4432 535.577 46.9205C535.577 48.4356 535.814 49.7756 536.288 50.9403C536.771 52.0956 537.481 53.0047 538.418 53.6676C539.365 54.321 540.54 54.6477 541.941 54.6477ZM560.066 58.2273C559.365 58.2273 558.764 57.9763 558.262 57.4744C557.76 56.9725 557.509 56.3712 557.509 55.6705C557.509 54.9697 557.76 54.3684 558.262 53.8665C558.764 53.3646 559.365 53.1136 560.066 53.1136C560.767 53.1136 561.368 53.3646 561.87 53.8665C562.372 54.3684 562.623 54.9697 562.623 55.6705C562.623 56.1345 562.504 56.5606 562.268 56.9489C562.04 57.3371 561.733 57.6496 561.344 57.8864C560.966 58.1136 560.54 58.2273 560.066 58.2273Z" fill="#9D9D9D"/>
<rect width="130" height="87" transform="translate(792)" fill="#A9A9A9"/>
<g clip-path="url(#clip0_20_83)">
<path d="M857 16.875C859.059 16.875 861.002 17.6863 862.467 19.1576C863.939 20.6229 864.75 22.5664 864.75 24.625V46.9062C864.75 48.9648 863.939 50.9084 862.467 52.3736C861.002 53.8449 859.059 54.6562 857 54.6562C854.941 54.6562 852.998 53.8449 851.533 52.3736C850.061 50.9084 849.25 48.9648 849.25 46.9062V24.625C849.25 22.5664 850.061 20.6229 851.533 19.1576C852.998 17.6863 854.941 16.875 857 16.875ZM857 13C850.606 13 845.375 18.2313 845.375 24.625V46.9062C845.375 53.3 850.606 58.5312 857 58.5312C863.394 58.5312 868.625 53.3 868.625 46.9062V24.625C868.625 18.2313 863.394 13 857 13Z" fill="white"/>
<path d="M875.406 43.0313V51.7501C875.406 51.9196 875.382 52.0891 875.34 52.2586C874.22 56.3879 871.773 59.8936 868.54 62.3639C865.906 64.3741 862.752 65.7061 859.361 66.1299C859.119 66.1602 858.938 66.3661 858.938 66.6083V70.1563C858.938 70.6891 859.373 71.1251 859.906 71.1251H864.75C866.887 71.1251 868.625 72.8627 868.625 75.0001H845.375C845.375 72.8627 847.113 71.1251 849.25 71.1251H854.094C854.627 71.1251 855.062 70.6891 855.062 70.1563V66.6143C855.062 66.3721 854.881 66.1663 854.639 66.136C847.082 65.1854 840.695 59.7483 838.66 52.2586C838.618 52.0952 838.594 51.9196 838.594 51.7501V43.0737C838.594 42.0202 839.423 41.1241 840.477 41.0938C841.573 41.0635 842.469 41.9415 842.469 43.0313V50.8903C842.469 51.3081 842.535 51.7258 842.669 52.1194C844.727 58.2225 850.497 62.4063 857 62.4063C863.503 62.4063 869.273 58.2225 871.331 52.1194C871.465 51.7258 871.531 51.3081 871.531 50.8903V43.0737C871.531 42.0202 872.361 41.1241 873.414 41.0938C874.51 41.0635 875.406 41.9415 875.406 43.0313ZM888 28.3184C888 33.4225 886.638 38.2118 884.258 42.335L881.219 39.8405C881.588 39.1624 881.921 38.46 882.224 37.7456C883.483 34.7606 884.125 31.5879 884.125 28.3184C884.125 25.0489 883.483 21.8762 882.224 18.8913C881.721 17.7045 881.134 16.5663 880.456 15.4825L883.471 13.0061C886.335 17.4139 888 22.6694 888 28.3184ZM878.312 28.3184C878.312 31.0793 877.701 33.7071 876.611 36.0563L873.493 33.4952C874.123 31.8483 874.438 30.1106 874.438 28.3184C874.438 26.3567 874.056 24.4495 873.299 22.6633C873.166 22.3424 873.021 22.0276 872.863 21.7249L875.915 19.2182C877.441 21.9004 878.312 25.0065 878.312 28.3184ZM840.701 22.6633C839.944 24.4495 839.562 26.3567 839.562 28.3184C839.562 30.1045 839.883 31.8483 840.513 33.4952L837.395 36.0563C836.299 33.7071 835.688 31.0793 835.688 28.3184C835.688 25.0065 836.559 21.9004 838.091 19.2182L841.143 21.7249C840.985 22.0276 840.84 22.3424 840.701 22.6633ZM831.776 37.7456C832.079 38.46 832.418 39.1624 832.781 39.8405L829.742 42.3411C827.362 38.2118 826 33.4225 826 28.3184C826 22.6694 827.665 17.4139 830.535 13.0122L833.55 15.4885C832.872 16.5723 832.285 17.7106 831.782 18.8973C830.517 21.8762 829.875 25.0489 829.875 28.3184C829.875 31.5879 830.517 34.7606 831.776 37.7456Z" fill="white"/>
</g>
<defs>
<clipPath id="clip0_20_83">
<rect width="62" height="62" fill="white" transform="translate(826 13)"/>
</clipPath>
</defs>
</svg>
