<svg width="62" height="62" viewBox="0 0 62 62" fill="none" xmlns="http://www.w3.org/2000/svg">
<g clip-path="url(#clip0_20_79)">
<path d="M31 3.875C33.0586 3.875 35.0021 4.68633 36.4674 6.15762C37.9387 7.62285 38.75 9.56641 38.75 11.625V33.9062C38.75 35.9648 37.9387 37.9084 36.4674 39.3736C35.0021 40.8449 33.0586 41.6562 31 41.6562C28.9414 41.6562 26.9979 40.8449 25.5326 39.3736C24.0613 37.9084 23.25 35.9648 23.25 33.9062V11.625C23.25 9.56641 24.0613 7.62285 25.5326 6.15762C26.9979 4.68633 28.9414 3.875 31 3.875ZM31 0C24.6063 0 19.375 5.23125 19.375 11.625V33.9062C19.375 40.3 24.6063 45.5312 31 45.5312C37.3937 45.5312 42.625 40.3 42.625 33.9062V11.625C42.625 5.23125 37.3937 0 31 0Z" fill="white"/>
<path d="M49.4062 30.0313V38.7501C49.4062 38.9196 49.382 39.0891 49.3396 39.2586C48.2195 43.3879 45.7734 46.8936 42.5402 49.3639C39.9064 51.3741 36.752 52.7061 33.3613 53.1299C33.1191 53.1602 32.9375 53.3661 32.9375 53.6083V57.1563C32.9375 57.6891 33.3734 58.1251 33.9062 58.1251H38.75C40.8873 58.1251 42.625 59.8627 42.625 62.0001H19.375C19.375 59.8627 21.1127 58.1251 23.25 58.1251H28.0938C28.6266 58.1251 29.0625 57.6891 29.0625 57.1563V53.6143C29.0625 53.3721 28.8809 53.1663 28.6387 53.136C21.0824 52.1854 14.6947 46.7483 12.6604 39.2586C12.618 39.0952 12.5938 38.9196 12.5938 38.7501V30.0737C12.5938 29.0202 13.4232 28.1241 14.4768 28.0938C15.5727 28.0635 16.4688 28.9415 16.4688 30.0313V37.8903C16.4688 38.3081 16.5354 38.7258 16.6686 39.1194C18.7271 45.2225 24.4973 49.4063 31 49.4063C37.5027 49.4063 43.2729 45.2225 45.3314 39.1194C45.4646 38.7258 45.5312 38.3081 45.5312 37.8903V30.0737C45.5312 29.0202 46.3607 28.1241 47.4143 28.0938C48.5102 28.0635 49.4062 28.9415 49.4062 30.0313ZM62 15.3184C62 20.4225 60.6377 25.2118 58.2582 29.335L55.2188 26.8405C55.5881 26.1624 55.9211 25.46 56.2238 24.7456C57.4832 21.7606 58.125 18.5879 58.125 15.3184C58.125 12.0489 57.4832 8.87622 56.2238 5.89126C55.7213 4.70454 55.134 3.56626 54.4559 2.48247L57.4711 0.00610352C60.335 4.41392 62 9.66938 62 15.3184ZM52.3125 15.3184C52.3125 18.0793 51.701 20.7071 50.6111 23.0563L47.493 20.4952C48.1227 18.8483 48.4375 17.1106 48.4375 15.3184C48.4375 13.3567 48.0561 11.4495 47.2992 9.66333C47.166 9.34243 47.0207 9.02759 46.8633 8.72485L49.9148 6.21821C51.4406 8.90044 52.3125 12.0065 52.3125 15.3184ZM14.7008 9.66333C13.9439 11.4495 13.5625 13.3567 13.5625 15.3184C13.5625 17.1045 13.8834 18.8483 14.5131 20.4952L11.3949 23.0563C10.299 20.7071 9.6875 18.0793 9.6875 15.3184C9.6875 12.0065 10.5594 8.90044 12.0912 6.21821L15.1428 8.72485C14.9854 9.02759 14.84 9.34243 14.7008 9.66333ZM5.77617 24.7456C6.07891 25.46 6.41797 26.1624 6.78125 26.8405L3.7418 29.3411C1.3623 25.2118 0 20.4225 0 15.3184C0 9.66938 1.66504 4.41392 4.53496 0.0121582L7.5502 2.48853C6.87207 3.57231 6.28477 4.7106 5.78223 5.89731C4.5168 8.87622 3.875 12.0489 3.875 15.3184C3.875 18.5879 4.5168 21.7606 5.77617 24.7456Z" fill="white"/>
</g>
<defs>
<clipPath id="clip0_20_79">
<rect width="62" height="62" fill="white"/>
</clipPath>
</defs>
</svg>
